name C:\Users\tom_v\MusculoskeletalSpecialization_revisited\Results\Case_12\motion.mot
datacolumns 32
datarows 11
range 0.10116326 0.14162856
endheader 
time	pelvis_tilt	pelvis_list	pelvis_rotation	pelvis_tx	pelvis_ty	pelvis_tz	hip_flexion_r	hip_adduction_r	hip_rotation_r	knee_angle_r	ankle_angle_r	subtalar_angle_r	mtp_angle_r	hip_flexion_l	hip_adduction_l	hip_rotation_l	knee_angle_l	ankle_angle_l	subtalar_angle_l	mtp_angle_l	lumbar_extension	lumbar_bending	lumbar_rotation	arm_flex_r	arm_add_r	arm_rot_r	elbow_flex_r	arm_flex_l	arm_add_l	arm_rot_l	elbow_flex_l	
          0.10116326	         -9.26327621	         10.78564776	        -20.00776444	          0.96064651	          0.92543410	          0.00818158	         -1.10706200	        -10.63683825	          4.13858948	        -35.56901439	        -20.43815992	        -23.28628051	         -3.96645043	         57.00699530	         -1.66772286	         -8.57085488	        -58.63614045	         19.04206488	         -7.82634827	          6.59934966	         -5.84564154	         -9.94606698	         10.70886791	         49.95706454	        -41.55388333	        -12.92593473	        114.79438118	        -69.98739019	          4.80493225	         -5.36510069	          2.33067486	
          0.10520979	         -8.71973959	         10.77179910	        -20.19572380	          0.99838199	          0.92725344	          0.00937361	         -1.81680739	        -11.10391049	          4.50489293	        -36.84673838	        -20.87010264	        -18.11873973	         -1.77350797	         56.98015948	         -1.79986030	         -8.76843698	        -56.07957826	         20.20571527	         -9.85623712	          6.71274447	         -6.48279506	        -10.40932687	         10.86038348	         49.92277464	        -40.71567490	        -12.64249406	        114.56611763	        -69.99997198	          4.60259220	         -9.73420958	          0.93482488	
          0.10925632	         -8.06267094	         10.65827520	        -20.40339589	          1.03602720	          0.92931526	          0.01061937	         -2.59984521	        -11.41291634	          4.92014949	        -38.08481949	        -20.57336292	        -15.87960297	          0.85576932	         56.59983174	         -1.97031737	         -9.06088012	        -53.27044345	         21.24341814	        -11.55510808	          6.81504097	         -7.31979256	        -10.81032252	         10.95356979	         49.89022639	        -39.73641632	        -12.45454109	        114.42680548	        -69.99871431	          4.44226079	        -12.41743275	          0.16269625	
          0.11330285	         -7.29201775	         10.45252871	        -20.63426328	          1.07359147	          0.93162488	          0.01186448	         -3.42617049	        -11.58945031	          5.37919615	        -39.24429621	        -21.45789477	        -16.60805994	          2.87822241	         55.88622672	         -2.13747122	         -9.38368282	        -50.29358470	         22.08677146	        -13.01231439	          6.89145770	         -8.35724839	        -11.15604840	         11.00435657	         49.87765866	        -38.69707876	        -12.42581373	        114.43712704	        -69.98738634	          4.38671234	        -13.19978468	          0.00001985	
          0.11734938	         -6.41591095	         10.18935196	        -20.90016231	          1.11108552	          0.93415040	          0.01303366	         -4.24534992	        -11.71652935	          5.92647090	        -40.39722815	        -22.54445525	        -17.48320711	          3.92272979	         54.87470994	         -2.25179024	         -9.68847548	        -47.22567026	         22.72930603	        -14.35796510	          6.92448681	         -9.56768927	        -11.47331237	         11.03190249	         49.91057536	        -37.74244698	        -12.39100279	        114.55269972	        -69.82921595	          4.45509314	        -11.91307341	          0.03986103	
          0.12139591	         -5.50110514	          9.88736145	        -21.20538256	          1.14850180	          0.93676189	          0.01407459	         -4.95845459	        -11.81998647	          6.58274940	        -41.62344995	        -22.61868408	        -16.71582817	          4.50685037	         53.66738838	         -2.31087116	         -9.91990514	        -44.15626011	         23.23338792	        -15.65235971	          6.90916959	        -10.86038818	        -11.75227470	         11.06879831	         49.96302170	        -37.06140322	        -12.08341640	        114.67075659	        -69.43334857	          4.62211224	         -8.49912443	          0.00176234	
          0.12544244	         -4.66826841	          9.52787966	        -21.52478541	          1.18583139	          0.93925147	          0.01493750	         -5.44066545	        -11.84159861	          7.26703532	        -42.91521875	        -22.33314272	        -15.15887715	          5.15989378	         52.42510907	         -2.35620693	         -9.99999734	        -41.18903570	         23.67426170	        -16.91014732	          6.86067826	        -12.10294141	        -11.92331090	         11.14201909	         49.99748045	        -36.83456599	        -11.24897230	        114.67135111	        -68.88685500	          4.83341683	         -3.23321336	          0.13856545	
          0.12948897	         -3.96456430	          9.10320114	        -21.83007897	          1.22311306	          0.94153349	          0.01558603	         -5.66354631	        -11.76477300	          7.85130124	        -44.22945340	        -22.31936556	        -13.95058311	          5.67992681	         51.21266509	         -2.39646956	         -9.89217626	        -38.37379810	         24.09370042	        -18.16759494	          6.83960385	        -13.24283953	        -11.95493100	         11.25336871	         49.99056164	        -37.18592047	         -9.70300979	        114.48675488	        -68.31579468	          4.99011760	          3.19562629	          0.89715611	
          0.13353550	         -3.37418262	          8.63625753	        -22.10484292	          1.26040931	          0.94362338	          0.01603542	         -5.66249295	        -11.63027958	          8.25761416	        -45.54952192	        -22.21061193	        -13.12549700	          5.91327791	         50.00981513	         -2.40850757	         -9.62153686	        -35.70132138	         24.49988181	        -19.40432409	          6.82490566	        -14.28495036	        -11.87686155	         11.39201435	         49.87952483	        -38.06555847	         -7.52371259	        114.17949591	        -67.83650028	          4.93090610	          9.75007794	          2.80373024	
          0.13758203	         -2.87316866	          8.15994032	        -22.33781975	          1.29777602	          0.94555936	          0.01635408	         -5.47462254	        -11.47862162	          8.47240753	        -46.86047433	        -21.78403529	        -12.39496833	          6.07977855	         48.78020321	         -2.36960350	         -9.24645145	        -33.13816096	         24.81576963	        -20.58443107	          6.79991176	        -15.23864379	        -11.74159675	         11.55506265	         49.48569015	        -39.24898577	         -5.16341174	        113.94534307	        -67.55435203	          4.46352574	         15.22735697	          6.42853323	
          0.14162856	         -2.45260454	          7.70716570	        -22.51898320	          1.33524437	          0.94734778	          0.01662382	         -5.11156296	        -11.33212877	          8.51739344	        -48.14647110	        -21.28495162	        -11.64360509	          6.28543137	         47.50756116	         -2.26575132	         -8.83209387	        -30.65078556	         25.01206298	        -21.65833760	          6.82275912	        -16.09380855	        -11.60045199	         11.75136646	         48.55544887	        -40.49617941	         -3.17195309	        113.97292906	        -67.59024141	          3.46566159	         18.59590958	         12.27231451	
